<?xml version="1.0" encoding="UTF-8"?>
<svg width="100" height="100" viewBox="0 0 100 100" xmlns="http://www.w3.org/2000/svg">
  <defs>
    <linearGradient id="roseGradient" x1="0%" y1="0%" x2="100%" y2="100%">
      <stop offset="0%" style="stop-color:#FFDAB9"/>
      <stop offset="100%" style="stop-color:#FFB6C1"/>
    </linearGradient>
  </defs>
  <g transform="translate(50,50)">
    <path d="M0,0 C15,-25 35,-25 35,0 S15,25 0,0" fill="url(#roseGradient)" transform="rotate(0)"/>
    <path d="M0,0 C15,-25 35,-25 35,0 S15,25 0,0" fill="url(#roseGradient)" transform="rotate(60)"/>
    <path d="M0,0 C15,-25 35,-25 35,0 S15,25 0,0" fill="url(#roseGradient)" transform="rotate(120)"/>
    <path d="M0,0 C15,-25 35,-25 35,0 S15,25 0,0" fill="url(#roseGradient)" transform="rotate(180)"/>
    <path d="M0,0 C15,-25 35,-25 35,0 S15,25 0,0" fill="url(#roseGradient)" transform="rotate(240)"/>
    <path d="M0,0 C15,-25 35,-25 35,0 S15,25 0,0" fill="url(#roseGradient)" transform="rotate(300)"/>
    <circle r="8" fill="#FFD700"/>
  </g>
</svg>
