<?xml version="1.0" encoding="UTF-8"?>
<svg width="100" height="100" viewBox="0 0 100 100" xmlns="http://www.w3.org/2000/svg">
  <defs>
    <linearGradient id="flowerGradient" x1="0%" y1="0%" x2="100%" y2="100%">
      <stop offset="0%" style="stop-color:#FFE4E1"/>
      <stop offset="100%" style="stop-color:#FFB6C1"/>
    </linearGradient>
  </defs>
  <g transform="translate(50,50)">
    <path d="M0,0 C10,-20 30,-20 30,0 C30,20 10,20 0,0" fill="url(#flowerGradient)" transform="rotate(0)"/>
    <path d="M0,0 C10,-20 30,-20 30,0 C30,20 10,20 0,0" fill="url(#flowerGradient)" transform="rotate(72)"/>
    <path d="M0,0 C10,-20 30,-20 30,0 C30,20 10,20 0,0" fill="url(#flowerGradient)" transform="rotate(144)"/>
    <path d="M0,0 C10,-20 30,-20 30,0 C30,20 10,20 0,0" fill="url(#flowerGradient)" transform="rotate(216)"/>
    <path d="M0,0 C10,-20 30,-20 30,0 C30,20 10,20 0,0" fill="url(#flowerGradient)" transform="rotate(288)"/>
    <circle r="5" fill="#FFD700"/>
  </g>
</svg>
