<?xml version="1.0" encoding="UTF-8"?>
<svg width="200" height="200" viewBox="0 0 200 200" xmlns="http://www.w3.org/2000/svg" style="background: transparent;">
    <defs>
        <!-- 主渐变 - 柔和的红色 -->
        <linearGradient id="heartGradient" x1="0%" y1="0%" x2="100%" y2="100%">
            <stop offset="0%" style="stop-color:#ff6b6b"/>
            <stop offset="50%" style="stop-color:#ff4141"/>
            <stop offset="100%" style="stop-color:#ff2020"/>
        </linearGradient>
        
        <!-- 高光渐变 -->
        <linearGradient id="shineGradient" x1="0%" y1="0%" x2="100%" y2="100%">
            <stop offset="0%" style="stop-color:rgba(255,255,255,0.4)"/>
            <stop offset="50%" style="stop-color:rgba(255,255,255,0.1)"/>
            <stop offset="100%" style="stop-color:rgba(255,255,255,0)"/>
        </linearGradient>
        
        <!-- 内阴影 -->
        <filter id="innerShadow">
            <feOffset dx="0" dy="2"/>
            <feGaussianBlur stdDeviation="3"/>
            <feComposite operator="out" in="SourceGraphic"/>
            <feComponentTransfer>
                <feFuncA type="linear" slope="0.3"/>
            </feComponentTransfer>
            <feComposite operator="in" in2="SourceGraphic"/>
        </filter>
    </defs>
    
    <!-- 心形 -->
    <g transform="translate(20, 30) scale(0.8)">
        <path d="M100 170 
                 C 60 120 0 90 0 45 
                 C 0 20 20 0 45 0 
                 C 70 0 90 20 100 45 
                 C 110 20 130 0 155 0 
                 C 180 0 200 20 200 45 
                 C 200 90 140 120 100 170Z" 
              fill="url(#heartGradient)"
              filter="url(#innerShadow)"/>
        
        <!-- 高光层 -->
        <path d="M100 170 
                 C 60 120 0 90 0 45 
                 C 0 20 20 0 45 0 
                 C 70 0 90 20 100 45 
                 C 110 20 130 0 155 0 
                 C 180 0 200 20 200 45 
                 C 200 90 140 120 100 170Z"
              fill="url(#shineGradient)"/>
    </g>
</svg>
